<svg width="160" height="48" viewBox="0 0 160 48" fill="none" xmlns="http://www.w3.org/2000/svg">
  <rect width="48" height="48" rx="14" fill="#1E2A4A"/>
  <path d="M24 10L28.2 18.8L38 20.1L30.8 27L32.6 36.8L24 32.2L15.4 36.8L17.2 27L10 20.1L19.8 18.8L24 10Z" fill="#C9A84C"/>
  <path d="M68.6 17.6H77.9C83.4 17.6 86.8 20.5 86.8 25.3C86.8 30.2 83.4 33.2 77.9 33.2H73.2V40H68.6V17.6ZM77.4 29.4C80.2 29.4 82 28.1 82 25.3C82 22.6 80.2 21.4 77.4 21.4H73.2V29.4H77.4Z" fill="#1E2A4A"/>
  <path d="M90.7 17.6H95.3V40H90.7V17.6Z" fill="#1E2A4A"/>
  <path d="M100.7 17.6H104.9L115.3 31V17.6H119.8V40H115.9L105.2 26.2V40H100.7V17.6Z" fill="#1E2A4A"/>
  <path d="M125.2 28.9C125.2 22.2 130.4 17.2 137.4 17.2C141.5 17.2 144.1 18.3 146.5 20.4L143.6 23.8C141.8 22.3 140.3 21.4 137.2 21.4C133 21.4 129.8 24.9 129.8 28.9C129.8 33.3 132.9 36.5 137.6 36.5C139.7 36.5 141.7 35.8 143.1 34.8V31.5H137.2V27.6H147.4V36.8C145.2 38.7 141.9 40.4 137.4 40.4C130.1 40.4 125.2 35.5 125.2 28.9Z" fill="#1E2A4A"/>
</svg>
